PathFileType	4	(X/Y/Z)	output.trc
DataRate	CameraRate	NumFrames	NumMarkers	Units	OrigDataRate	OrigDataStartFrame	OrigNumFrames
100	100	19	23	m	100	1	3498
Frame#	Time	C7			T8			EL			EM			US			RS			AA			Fore_Clus_1			Fore_Clus_2			Fore_Clus_3			Fore_Clus_4			Hum_Clus_1			Hum_Clus_2			Hum_Clus_3			Hum_Clus_4			Thor_Clus_1			Thor_Clus_2			Thor_Clus_3			Thor_Clus_4			IJ			PX			GH			Thor_Clus_5		
		X1	Y1	Z1	X2	Y2	Z2	X3	Y3	Z3	X4	Y4	Z4	X5	Y5	Z5	X6	Y6	Z6	X7	Y7	Z7	X8	Y8	Z8	X9	Y9	Z9	X10	Y10	Z10	X11	Y11	Z11	X12	Y12	Z12	X13	Y13	Z13	X14	Y14	Z14	X15	Y15	Z15	X16	Y16	Z16	X17	Y17	Z17	X18	Y18	Z18	X19	Y19	Z19	X20	Y20	Z20	X21	Y21	Z21	X22	Y22	Z22	X23	Y23	Z23
0	0.000000	-0.071955	1.471085	-0.090560	-0.099809	1.237897	-0.127745	-0.218592	1.062953	0.118211	-0.199256	1.052870	0.056606	-0.190932	0.822174	0.180520	-0.136843	0.821535	0.178994	-0.201636	1.378122	0.065464	-0.203717	0.897213	0.193179	-0.193971	0.845546	0.208330	-0.167233	0.851728	0.211554	-0.160107	0.907253	0.198219	-0.201211	1.164997	0.141691	-0.248969	1.172038	0.105729	-0.253487	1.235542	0.106204	-0.202150	1.238663	0.135032	0.062723	1.368921	0.023268	0.030243	1.319887	0.083892	0.026048	1.366062	0.049445	0.081761	1.323704	0.045373	-0.001893	1.379400	-0.007520	0.031482	1.166575	0.039661	-0.174523	1.356989	0.036550	0.021261	1.339805	0.073762
1	0.010000	-0.071964	1.471059	-0.090866	-0.099720	1.237862	-0.128063	-0.218875	1.062928	0.117808	-0.199423	1.052823	0.056243	-0.191315	0.822172	0.180229	-0.137223	0.821555	0.178820	-0.201885	1.378099	0.064960	-0.204200	0.897187	0.192922	-0.194356	0.845456	0.208019	-0.167897	0.851825	0.211623	-0.160521	0.907239	0.197940	-0.201539	1.164996	0.141268	-0.249248	1.171987	0.105282	-0.253767	1.235476	0.105667	-0.202517	1.238648	0.134571	0.062567	1.368941	0.023197	0.029995	1.319915	0.083783	0.025838	1.366058	0.049342	0.081539	1.323723	0.045326	-0.002023	1.379397	-0.007698	0.031309	1.166585	0.039569	-0.174745	1.356941	0.036096	0.021016	1.339811	0.073635
2	0.020000	-0.071970	1.471031	-0.091179	-0.099625	1.237823	-0.128386	-0.219131	1.062894	0.117415	-0.199575	1.052768	0.055885	-0.191705	0.822161	0.179936	-0.137609	0.821562	0.178645	-0.202140	1.378073	0.064441	-0.204603	0.897213	0.192617	-0.195094	0.845606	0.207774	-0.168136	0.851747	0.210991	-0.160978	0.907245	0.197653	-0.201835	1.164991	0.140866	-0.249513	1.171935	0.104817	-0.254067	1.235430	0.105131	-0.202882	1.238663	0.134094	0.062387	1.368928	0.023123	0.029734	1.319951	0.083661	0.025647	1.366080	0.049244	0.081328	1.323748	0.045280	-0.002155	1.379393	-0.007878	0.031132	1.166593	0.039478	-0.174988	1.356886	0.035637	0.020751	1.339802	0.073529
3	0.030000	-0.071977	1.471000	-0.091493	-0.099527	1.237782	-0.128713	-0.219360	1.062849	0.117030	-0.199712	1.052705	0.055533	-0.192098	0.822142	0.179642	-0.138000	0.821555	0.178469	-0.202400	1.378043	0.063915	-0.205036	0.897214	0.192355	-0.195410	0.845563	0.207447	-0.168599	0.851750	0.210895	-0.161408	0.907249	0.197435	-0.202174	1.164964	0.140462	-0.249792	1.171883	0.104310	-0.254320	1.235390	0.104637	-0.203190	1.238619	0.133679	0.062199	1.368939	0.023031	0.029463	1.319957	0.083568	0.025457	1.366065	0.049159	0.081106	1.323766	0.045258	-0.002291	1.379387	-0.008058	0.030951	1.166600	0.039388	-0.175249	1.356825	0.035173	0.020459	1.339851	0.073363
4	0.040000	-0.071991	1.470975	-0.091797	-0.099438	1.237748	-0.129039	-0.219565	1.062795	0.116653	-0.199839	1.052631	0.055185	-0.192491	0.822115	0.179349	-0.138390	0.821537	0.178294	-0.202663	1.378013	0.063398	-0.205420	0.897190	0.192068	-0.195704	0.845494	0.207125	-0.169068	0.851768	0.210719	-0.161810	0.907278	0.197203	-0.202547	1.164917	0.140080	-0.250083	1.171834	0.103818	-0.254602	1.235344	0.104111	-0.203493	1.238680	0.133181	0.062013	1.368970	0.022994	0.029175	1.319966	0.083461	0.025242	1.366098	0.049063	0.080863	1.323787	0.045257	-0.002432	1.379384	-0.008233	0.030765	1.166608	0.039293	-0.175523	1.356756	0.034707	0.020166	1.339846	0.073241
5	0.050000	-0.072013	1.470941	-0.092104	-0.099346	1.237703	-0.129362	-0.219749	1.062730	0.116280	-0.199953	1.052550	0.054837	-0.192884	0.822083	0.179059	-0.138781	0.821509	0.178115	-0.202933	1.377971	0.062878	-0.205862	0.897140	0.191846	-0.195981	0.845381	0.206833	-0.169560	0.851848	0.210535	-0.162205	0.907283	0.196964	-0.202905	1.164864	0.139667	-0.250355	1.171759	0.103315	-0.254919	1.235239	0.103589	-0.203873	1.238524	0.132816	0.061805	1.368975	0.022937	0.028864	1.319980	0.083364	0.025013	1.366094	0.048978	0.080619	1.323798	0.045244	-0.002578	1.379374	-0.008408	0.030582	1.166612	0.039203	-0.175810	1.356681	0.034242	0.019902	1.339843	0.073134
6	0.060000	-0.072050	1.470911	-0.092392	-0.099271	1.237664	-0.129677	-0.219923	1.062655	0.115908	-0.200064	1.052461	0.054487	-0.193269	0.822045	0.178769	-0.139165	0.821473	0.177932	-0.203205	1.377925	0.062381	-0.206194	0.897133	0.191336	-0.196403	0.845367	0.206563	-0.170213	0.852273	0.210311	-0.162629	0.907256	0.196744	-0.203223	1.164817	0.139247	-0.250620	1.171679	0.102845	-0.255196	1.235154	0.103066	-0.204229	1.238526	0.132316	0.061556	1.368951	0.022865	0.028550	1.320031	0.083241	0.024770	1.366087	0.048862	0.080403	1.323798	0.045216	-0.002733	1.379367	-0.008575	0.030395	1.166615	0.039107	-0.176099	1.356598	0.033780	0.019601	1.339876	0.073038
7	0.070000	-0.072104	1.470875	-0.092669	-0.099204	1.237619	-0.129982	-0.220094	1.062572	0.115531	-0.200175	1.052366	0.054132	-0.193646	0.822004	0.178479	-0.139540	0.821433	0.177741	-0.203480	1.377864	0.061901	-0.206606	0.897120	0.191001	-0.196755	0.845315	0.206268	-0.170626	0.852149	0.209988	-0.163044	0.907228	0.196523	-0.203553	1.164765	0.138840	-0.250918	1.171583	0.102365	-0.255474	1.235112	0.102556	-0.204582	1.238517	0.131843	0.061283	1.368921	0.022810	0.028254	1.319988	0.083176	0.024467	1.366071	0.048756	0.080162	1.323797	0.045198	-0.002897	1.379354	-0.008735	0.030212	1.166614	0.039014	-0.176387	1.356510	0.033323	0.019342	1.339870	0.072942
8	0.080000	-0.072177	1.470834	-0.092929	-0.099149	1.237568	-0.130273	-0.220275	1.062482	0.115146	-0.200294	1.052267	0.053768	-0.194009	0.821959	0.178184	-0.139902	0.821391	0.177535	-0.203759	1.377790	0.061446	-0.206962	0.897083	0.190636	-0.197129	0.845242	0.205856	-0.171084	0.852167	0.209726	-0.163423	0.907209	0.196261	-0.203899	1.164715	0.138377	-0.251256	1.171491	0.101856	-0.255791	1.235044	0.102024	-0.204929	1.238484	0.131484	0.060987	1.368883	0.022728	0.027980	1.319980	0.083089	0.024201	1.366065	0.048624	0.079905	1.323790	0.045189	-0.003069	1.379338	-0.008887	0.030031	1.166610	0.038921	-0.176667	1.356417	0.032876	0.019036	1.339831	0.072777
9	0.090000	-0.072273	1.470795	-0.093162	-0.099117	1.237521	-0.130547	-0.220479	1.062387	0.114746	-0.200430	1.052164	0.053392	-0.194353	0.821913	0.177879	-0.140245	0.821351	0.177311	-0.204038	1.377705	0.061029	-0.207475	0.897047	0.190375	-0.197454	0.845145	0.205508	-0.171426	0.852113	0.209360	-0.163874	0.907161	0.195907	-0.204253	1.164631	0.137942	-0.251564	1.171407	0.101376	-0.256169	1.234929	0.101472	-0.205296	1.238391	0.131002	0.060743	1.368852	0.022681	0.027673	1.319964	0.082951	0.023928	1.366014	0.048490	0.079667	1.323784	0.045168	-0.003251	1.379320	-0.009026	0.029852	1.166602	0.038825	-0.176929	1.356321	0.032441	0.018751	1.339805	0.072666
10	0.100000	-0.072388	1.470743	-0.093382	-0.099095	1.237459	-0.130805	-0.220717	1.062291	0.114328	-0.200589	1.052064	0.053000	-0.194681	0.821864	0.177560	-0.140572	0.821314	0.177061	-0.204319	1.377601	0.060636	-0.207867	0.896945	0.189997	-0.198672	0.845631	0.205496	-0.171742	0.852027	0.209010	-0.164277	0.907142	0.195596	-0.204614	1.164528	0.137477	-0.251871	1.171294	0.100884	-0.256462	1.234815	0.100923	-0.205702	1.238311	0.130502	0.060525	1.368834	0.022621	0.027386	1.319943	0.082849	0.023700	1.365973	0.048380	0.079458	1.323777	0.045131	-0.003442	1.379293	-0.009156	0.029680	1.166587	0.038734	-0.177171	1.356224	0.032020	0.018474	1.339800	0.072555
11	0.110000	-0.072526	1.470694	-0.093570	-0.099097	1.237403	-0.131042	-0.221003	1.062195	0.113888	-0.200780	1.051965	0.052592	-0.194985	0.821814	0.177217	-0.140876	0.821283	0.176778	-0.204600	1.377488	0.060287	nan	nan	nan	nan	nan	nan	nan	nan	nan	nan	nan	nan	nan	nan	nan	nan	nan	nan	nan	nan	nan	nan	nan	nan	nan	nan	nan	nan	nan	nan	nan	nan	nan	nan	nan	nan	-0.003642	1.379265	-0.009271	0.029509	1.166569	0.038641	-0.177384	1.356128	0.031616	nan	nan	nan
12	0.120000	-0.072681	1.470639	-0.093738	-0.099112	1.237340	-0.131261	-0.221344	1.062104	0.113424	-0.201007	1.051874	0.052166	-0.195271	0.821761	0.176843	-0.141160	0.821258	0.176456	-0.204879	1.377362	0.059968	nan	nan	nan	nan	nan	nan	nan	nan	nan	nan	nan	nan	nan	nan	nan	nan	nan	nan	nan	nan	nan	nan	nan	nan	nan	nan	nan	nan	nan	nan	nan	nan	nan	nan	nan	nan	-0.003848	1.379231	-0.009375	0.029342	1.166544	0.038553	-0.177568	1.356036	0.031229	nan	nan	nan
13	0.130000	-0.072851	1.470579	-0.093888	-0.099143	1.237272	-0.131463	-0.221744	1.062022	0.112934	-0.201273	1.051791	0.051721	-0.195539	0.821703	0.176431	-0.141428	0.821236	0.176088	-0.205157	1.377226	0.059680	-0.208790	0.896675	0.188569	-0.199028	0.844962	0.203965	-0.172883	0.851767	0.207820	-0.165348	0.906938	0.194560	-0.205756	1.164317	0.136309	-0.252756	1.170980	0.099279	-0.257442	1.234525	0.099265	-0.206815	1.238088	0.129167	0.059916	1.368827	0.022532	0.026542	1.319884	0.082519	0.023030	1.365952	0.048122	0.078787	1.323824	0.045029	-0.004059	1.379192	-0.009468	0.029178	1.166514	0.038468	-0.177719	1.355950	0.030862	0.017635	1.339657	0.072255
14	0.140000	-0.073033	1.470523	-0.094011	-0.099193	1.237212	-0.131646	-0.222208	1.061949	0.112421	-0.201582	1.051720	0.051259	-0.195794	0.821638	0.175970	-0.141682	0.821215	0.175669	-0.205431	1.377089	0.059428	-0.209124	0.896578	0.188078	-0.199365	0.844816	0.203420	-0.173159	0.851667	0.207389	-0.165668	0.906851	0.194151	-0.206148	1.164226	0.135872	-0.253080	1.170902	0.098782	-0.258047	1.234467	0.098837	-0.207223	1.237869	0.128840	0.059718	1.368835	0.022517	0.026294	1.319847	0.082443	0.022754	1.365908	0.048048	0.078558	1.323817	0.045033	-0.004275	1.379152	-0.009547	0.029012	1.166481	0.038384	-0.177835	1.355871	0.030514	0.017372	1.339599	0.072202
15	0.150000	-0.073218	1.470460	-0.094128	-0.099246	1.237142	-0.131816	-0.222728	1.061891	0.111886	-0.201928	1.051664	0.050783	-0.196047	0.821564	0.175455	-0.141935	0.821189	0.175192	-0.205702	1.376948	0.059189	-0.209436	0.896487	0.187608	-0.199713	0.844708	0.202902	-0.173526	0.851568	0.206985	-0.165986	0.906725	0.193624	-0.206541	1.164192	0.135408	-0.253409	1.170848	0.098241	-0.258318	1.234416	0.098332	-0.207610	1.237799	0.128384	0.059520	1.368834	0.022502	0.026028	1.319799	0.082386	0.022491	1.365892	0.047993	0.078329	1.323796	0.045023	-0.004490	1.379107	-0.009620	0.028850	1.166444	0.038309	-0.177923	1.355805	0.030185	0.017129	1.339569	0.072111
16	0.160000	-0.073406	1.470405	-0.094226	-0.099315	1.237083	-0.131973	-0.223298	1.061848	0.111335	-0.202308	1.051623	0.050296	-0.196305	0.821476	0.174876	-0.142192	0.821151	0.174656	-0.205967	1.376815	0.058977	-0.209811	0.896361	0.187108	-0.200252	0.844638	0.202450	-0.173884	0.851456	0.206454	-0.166374	0.906588	0.193091	-0.206949	1.164163	0.134983	-0.253717	1.170778	0.097631	-0.258622	1.234354	0.097734	-0.207973	1.237739	0.127918	0.059355	1.368840	0.022501	0.025704	1.319698	0.082439	0.022234	1.365861	0.047951	0.078102	1.323743	0.045024	-0.004705	1.379065	-0.009683	0.028683	1.166407	0.038235	-0.177981	1.355750	0.029875	0.016876	1.339540	0.072080
17	0.170000	-0.073588	1.470351	-0.094323	-0.099385	1.237025	-0.132121	-0.223903	1.061821	0.110774	-0.202711	1.051598	0.049805	-0.196584	0.821371	0.174229	-0.142471	0.821092	0.174057	-0.206225	1.376691	0.058772	-0.210235	0.896172	0.186527	-0.200491	0.844470	0.201874	-0.174344	0.851289	0.205881	-0.166767	0.906450	0.192613	-0.207426	1.164071	0.134535	-0.253984	1.170736	0.097075	-0.258897	1.234336	0.097120	-0.208310	1.237686	0.127491	0.059191	1.368837	0.022504	0.025464	1.319655	0.082378	0.021980	1.365856	0.047918	0.077872	1.323729	0.045024	-0.004915	1.379023	-0.009743	0.028515	1.166370	0.038169	-0.178018	1.355709	0.029583	0.016588	1.339522	0.072038
18	0.180000	-0.073761	1.470299	-0.094420	-0.099457	1.236970	-0.132263	-0.224524	1.061811	0.110212	-0.203126	1.051591	0.049315	-0.196899	0.821244	0.173511	-0.142786	0.821002	0.173396	-0.206477	1.376580	0.058570	-0.210575	0.896001	0.185893	-0.201266	0.844588	0.201269	-0.174770	0.851079	0.205244	-0.167165	0.906307	0.192086	-0.207878	1.163957	0.134113	-0.254354	1.170725	0.096546	-0.259176	1.234298	0.096539	-0.208709	1.237640	0.127092	0.059039	1.368865	0.022515	0.025214	1.319609	0.082315	0.021719	1.365849	0.047890	0.077639	1.323722	0.045037	-0.005119	1.378984	-0.009801	0.028345	1.166337	0.038110	-0.178039	1.355684	0.029307	0.016331	1.339476	0.072003
